<?xml version="1.0" standalone="no"?>
<!DOCTYPE svg PUBLIC "-//W3C//DTD SVG 20010904//EN"
 "http://www.w3.org/TR/2001/REC-SVG-20010904/DTD/svg10.dtd">
<svg version="1.0" xmlns="http://www.w3.org/2000/svg"
 width="500.000000pt" height="500.000000pt" viewBox="0 0 500.000000 500.000000"
 preserveAspectRatio="xMidYMid meet">
<metadata>
Created by potrace 1.16, written by Peter Selinger 2001-2019
</metadata>
<g transform="translate(0.000000,500.000000) scale(0.010611,-0.009956)"
fill="#000000" stroke="none">
<path d="M23370 48860 l0 -1360 190 0 190 0 0 1360 0 1360 -190 0 -190 0 0
-1360z"/>
<path d="M21090 50091 l-55 -6 2 -35 c0 -19 63 -628 139 -1353 l138 -1317 66
6 c36 4 66 8 68 9 1 1 -60 604 -138 1339 -77 735 -140 1343 -140 1351 0 8 -6
14 -12 13 -7 -1 -38 -4 -68 -7z"/>
<path d="M25955 50087 c-1 -7 -64 -604 -140 -1327 -75 -723 -138 -1327 -141
-1341 -5 -25 -4 -26 62 -32 37 -4 69 -5 71 -4 8 9 284 2690 276 2697 -15 14
-124 20 -128 7z"/>
<path d="M18660 49706 c-34 -7 -56 -17 -57 -26 -3 -14 552 -2639 559 -2646 5
-4 117 22 125 30 5 5 -531 2562 -553 2639 -3 9 -8 16 -12 16 -4 -1 -32 -6 -62
-13z"/>
<path d="M28387 49692 c-3 -16 -130 -613 -282 -1327 -152 -714 -274 -1300
-271 -1302 3 -3 32 -11 66 -18 46 -10 62 -10 65 -1 9 25 562 2641 560 2644 -3
3 -114 31 -126 32 -4 0 -9 -13 -12 -28z"/>
<path d="M16278 49068 c-32 -11 -58 -25 -58 -30 0 -10 829 -2570 834 -2575 5
-6 121 36 124 45 4 12 -830 2582 -838 2581 -3 0 -31 -10 -62 -21z"/>
<path d="M30776 49082 c-5 -9 -836 -2568 -836 -2575 0 -7 122 -48 128 -42 5 5
842 2579 839 2581 -14 9 -128 41 -131 36z"/>
<path d="M13973 48183 c-29 -13 -53 -29 -53 -34 0 -11 1090 -2461 1099 -2470
9 -10 121 41 121 55 0 21 -1095 2469 -1105 2472 -6 1 -34 -9 -62 -23z"/>
<path d="M33071 48189 c-5 -13 -251 -566 -546 -1229 -296 -663 -539 -1212
-542 -1221 -3 -11 13 -23 58 -42 34 -15 63 -26 64 -24 2 2 1094 2455 1101
2473 4 9 -19 22 -113 61 -7 3 -17 -6 -22 -18z"/>
<path d="M11783 47067 c-89 -50 -163 -97 -163 -104 0 -10 1333 -2328 1349
-2345 7 -8 323 174 328 189 3 9 -1326 2323 -1346 2345 -4 4 -79 -34 -168 -85z"/>
<path d="M34496 45984 c-373 -646 -675 -1179 -670 -1183 5 -5 80 -49 167 -99
156 -91 157 -91 171 -69 88 138 1344 2332 1339 2338 -7 6 -322 189 -326 189
-1 0 -307 -529 -681 -1176z"/>
<path d="M9715 45724 c-28 -19 -51 -39 -53 -43 -2 -7 1548 -2152 1582 -2188 9
-10 22 -5 61 23 28 19 51 39 53 44 3 7 -1548 2153 -1582 2187 -9 10 -22 5 -61
-23z"/>
<path d="M36561 44669 c-436 -601 -794 -1097 -796 -1103 -4 -10 103 -93 109
-84 1 1 337 464 746 1028 409 564 768 1057 797 1097 l53 72 -54 41 c-31 22
-57 40 -58 40 -2 0 -360 -491 -797 -1091z"/>
<path d="M7790 44165 c-39 -39 -42 -46 -29 -62 8 -10 416 -464 907 -1010 l893
-993 50 43 c27 23 48 47 47 53 -4 17 -1801 2012 -1813 2013 -6 1 -31 -19 -55
-44z"/>
<path d="M38366 43203 l-907 -1007 48 -48 c26 -26 50 -47 54 -46 3 2 414 457
914 1012 l908 1009 -49 43 c-27 24 -52 43 -55 44 -4 0 -415 -453 -913 -1007z"/>
<path d="M22895 42789 c-2152 -92 -4219 -594 -6146 -1492 -1512 -705 -2893
-1632 -4149 -2786 -174 -161 -730 -717 -891 -891 -586 -638 -1095 -1284 -1566
-1986 -2075 -3095 -3003 -6790 -2647 -10534 314 -3304 1643 -6422 3815 -8950
524 -610 1143 -1228 1759 -1759 l175 -150 120 0 120 0 -40 32 c-191 154 -664
575 -900 799 -1107 1052 -2064 2268 -2832 3599 -228 394 -269 470 -461 854
-685 1372 -1150 2773 -1422 4289 -379 2107 -332 4300 136 6366 231 1020 581
2075 992 2986 175 386 233 508 391 812 1571 3032 4046 5469 7109 7001 1093
547 2338 990 3552 1265 1116 252 2162 377 3290 392 1414 20 2606 -108 3931
-421 2262 -534 4410 -1570 6214 -2994 1058 -836 1955 -1742 2786 -2816 734
-948 1404 -2068 1911 -3195 350 -778 645 -1611 887 -2505 60 -221 195 -821
235 -1045 19 -107 51 -284 71 -392 89 -497 170 -1259 194 -1833 55 -1265 -18
-2397 -229 -3587 -341 -1914 -1049 -3799 -2047 -5448 -129 -213 -423 -669
-520 -808 -425 -605 -656 -904 -1066 -1381 -607 -704 -1346 -1420 -2055 -1991
l-143 -115 116 -3 117 -3 96 78 c555 451 1222 1087 1739 1660 2315 2564 3734
5751 4083 9173 61 606 85 1163 77 1845 -6 500 -12 648 -42 1050 -152 2002
-672 3940 -1541 5746 -1539 3200 -4110 5822 -7274 7418 -746 377 -1385 643
-2175 907 -1445 482 -2907 748 -4470 814 -272 11 -1029 11 -1300 -1z"/>
<path d="M6050 42425 c-34 -34 -42 -49 -35 -60 14 -20 1987 -1795 2003 -1802
16 -7 93 75 89 94 -2 11 -1997 1813 -2007 1813 -3 0 -26 -20 -50 -45z"/>
<path d="M40013 41567 c-551 -496 -1002 -907 -1002 -912 -1 -6 19 -31 44 -55
39 -39 46 -42 62 -29 10 8 464 416 1010 907 l993 893 -42 50 c-24 27 -47 49
-53 48 -5 0 -461 -406 -1012 -902z"/>
<path d="M4495 40505 c-21 -30 -36 -57 -34 -58 54 -45 2179 -1581 2189 -1584
17 -4 94 97 82 108 -21 18 -2178 1582 -2188 1586 -6 2 -28 -21 -49 -52z"/>
<path d="M41486 39767 c-599 -436 -1091 -797 -1093 -803 -4 -12 64 -104 76
-104 12 0 2185 1579 2189 1591 4 10 -66 109 -76 108 -4 0 -497 -357 -1096
-792z"/>
<path d="M3152 38438 c-51 -91 -88 -166 -84 -170 12 -12 2345 -1359 2347
-1355 25 31 184 324 181 332 -4 11 -2327 1355 -2342 1355 -5 0 -51 -73 -102
-162z"/>
<path d="M42706 37935 c-632 -366 -1158 -670 -1169 -678 -19 -13 -17 -19 75
-178 53 -90 100 -163 104 -162 22 5 2343 1349 2344 1357 0 17 -183 326 -194
325 -6 0 -528 -299 -1160 -664z"/>
<path d="M2035 36245 c-14 -32 -25 -60 -25 -64 0 -7 2464 -1105 2477 -1104 14
1 57 113 47 123 -9 9 -2423 1087 -2456 1097 -13 4 -23 -8 -43 -52z"/>
<path d="M44920 36238 c-556 -248 -1217 -542 -1620 -721 -687 -306 -704 -313
-708 -327 -3 -7 6 -34 19 -61 17 -37 27 -48 40 -44 9 3 234 103 500 221 266
119 720 321 1009 449 289 128 606 270 705 315 99 45 194 88 212 96 l32 14 -23
52 c-13 29 -30 54 -37 55 -8 1 -66 -21 -129 -49z"/>
<path d="M1151 33938 c-11 -34 -19 -63 -17 -65 2 -2 583 -192 1292 -422 l1289
-419 22 66 c13 36 22 66 20 67 -7 4 -2573 835 -2579 835 -3 0 -16 -28 -27 -62z"/>
<path d="M45935 33995 c-5 -2 -291 -94 -635 -205 -746 -241 -1867 -606 -1903
-619 l-26 -10 15 -53 c9 -29 19 -57 24 -62 8 -8 121 27 915 285 1169 380 1632
532 1647 540 15 8 15 13 -4 69 -11 33 -21 60 -21 59 -1 0 -6 -2 -12 -4z"/>
<path d="M514 31568 c-5 -29 -9 -59 -9 -67 0 -11 315 -82 1325 -296 729 -155
1326 -281 1327 -281 6 5 30 136 25 136 -2 0 -597 126 -1322 280 -724 154
-1322 280 -1327 280 -6 0 -15 -24 -19 -52z"/>
<path d="M46515 31603 c-76 -16 -730 -154 -1310 -278 -88 -19 -374 -79 -635
-135 -261 -55 -508 -108 -549 -117 l-73 -17 6 -55 c4 -31 10 -59 14 -63 10
-10 50 -2 607 117 486 103 997 212 1300 276 468 100 738 158 741 161 4 4 -22
117 -27 122 -2 1 -35 -4 -74 -11z"/>
<path d="M127 29122 c-4 -36 -5 -67 -4 -69 9 -8 2691 -283 2697 -276 5 4 10
35 12 68 l3 59 -1305 137 c-718 75 -1326 139 -1351 142 l-46 6 -6 -67z"/>
<path d="M46880 29173 c-19 -2 -593 -62 -1275 -134 -682 -71 -1257 -132 -1277
-136 l-38 -6 6 -56 c4 -31 9 -58 11 -61 2 -2 23 -3 46 -2 82 5 2612 273 2630
278 11 4 16 12 13 21 -3 8 -6 35 -6 59 l0 44 -37 -2 c-21 0 -54 -3 -73 -5z"/>
<path d="M0 26655 l0 -195 1360 0 1360 0 0 195 0 195 -1360 0 -1360 0 0 -195z"/>
<path d="M44410 26655 l0 -185 1355 0 1355 0 0 185 0 185 -1355 0 -1355 0 0
-185z"/>
<path d="M41850 26190 l0 -40 -80 0 -80 0 0 -37 c0 -56 -18 -434 -30 -623
-105 -1677 -465 -3398 -1045 -5000 -90 -251 -315 -813 -418 -1045 l-83 -190
-585 -6 c-321 -3 -640 -7 -709 -8 l-125 -1 -90 -177 c-689 -1356 -1521 -2565
-2560 -3718 -215 -240 -742 -774 -985 -1000 -1062 -988 -2194 -1804 -3445
-2487 -2782 -1518 -5940 -2214 -9130 -2013 -2571 163 -5052 907 -7285 2185
-2638 1510 -4837 3725 -6329 6374 -112 198 -291 533 -357 668 l-38 78 -711 0
-710 0 -69 158 c-917 2075 -1436 4256 -1538 6465 l-12 267 -78 0 c-74 0 -78
-1 -84 -25 -3 -14 -3 -46 0 -72 4 -27 9 -119 11 -206 13 -459 92 -1248 186
-1867 580 -3806 2348 -7318 5074 -10078 3068 -3108 7125 -5008 11465 -5372
500 -41 739 -51 1366 -57 772 -7 1178 8 1849 67 2734 242 5393 1110 7759 2532
966 581 1903 1271 2745 2022 532 474 1132 1078 1600 1611 2261 2576 3759 5755
4300 9125 118 735 206 1631 216 2200 1 80 6 182 10 228 4 45 5 82 1 82 -3 0
-6 -18 -6 -40z"/>
<path d="M1427 24400 c-714 -75 -1300 -140 -1302 -142 -3 -3 -2 -32 1 -66 6
-58 8 -62 33 -62 35 0 2672 278 2676 282 2 2 0 30 -3 63 l-7 60 -50 2 c-27 1
-634 -61 -1348 -137z"/>
<path d="M44297 24478 c-3 -34 -5 -64 -4 -65 1 -1 585 -62 1297 -137 712 -75
1316 -138 1343 -141 53 -6 53 -7 61 71 l5 51 -97 12 c-53 6 -635 67 -1292 136
-657 69 -1220 127 -1251 131 l-56 6 -6 -64z"/>
<path d="M1820 22107 c-723 -154 -1317 -281 -1319 -283 -1 -1 3 -31 11 -66 11
-52 17 -63 33 -61 67 5 2642 560 2639 568 -1 5 -8 36 -14 68 -7 32 -17 57 -23
56 -7 -1 -604 -127 -1327 -282z"/>
<path d="M43965 22368 c-2 -7 -8 -34 -13 -60 l-10 -48 37 -10 c37 -10 88 -20
1526 -326 1098 -234 1064 -227 1079 -221 8 3 17 23 20 44 4 21 9 46 12 55 6
22 24 17 -521 133 -1685 358 -2096 445 -2110 445 -9 0 -17 -6 -20 -12z"/>
<path d="M2423 19862 c-705 -229 -1284 -420 -1287 -423 -3 -3 4 -33 15 -68 19
-55 23 -61 43 -55 28 9 2538 823 2553 829 8 3 6 22 -10 69 -11 36 -24 66 -27
65 -3 0 -582 -188 -1287 -417z"/>
<path d="M43407 20263 c-3 -5 -12 -31 -20 -60 l-16 -52 457 -150 c354 -116
1590 -517 2040 -663 34 -11 68 -18 75 -15 7 3 20 30 29 61 l15 56 -426 139
c-1262 412 -2125 691 -2139 691 -6 0 -13 -3 -15 -7z"/>
<path d="M3246 17689 c-676 -301 -1231 -551 -1234 -554 -5 -5 34 -100 48 -118
8 -9 2473 1087 2478 1102 5 14 -45 121 -55 120 -4 -1 -561 -248 -1237 -550z"/>
<path d="M42611 18181 c-11 -27 -21 -54 -21 -59 0 -5 46 -30 103 -55 56 -25
298 -133 537 -240 1400 -625 1811 -807 1820 -807 11 0 65 108 58 115 -2 2
-314 142 -693 310 -380 169 -872 388 -1095 487 -452 202 -636 282 -667 292
-17 5 -24 -1 -42 -43z"/>
<path d="M4235 15723 c-643 -371 -1172 -677 -1174 -679 -4 -4 179 -323 189
-329 11 -7 2350 1344 2350 1356 0 13 -183 329 -190 329 -3 -1 -531 -305 -1175
-677z"/>
<path d="M41647 16283 c-94 -160 -122 -211 -117 -217 3 -2 187 -110 410 -239
223 -128 504 -291 625 -362 121 -71 261 -152 310 -180 149 -86 334 -193 640
-370 351 -203 354 -204 366 -185 15 25 119 202 151 257 l29 52 -38 24 c-21 13
-146 86 -278 162 -132 76 -292 168 -355 205 -63 36 -302 173 -530 304 -228
131 -578 333 -777 447 -199 115 -364 209 -367 209 -3 0 -34 -48 -69 -107z"/>
<path d="M2440 10730 l0 -1450 210 0 210 0 0 936 c0 875 1 935 17 932 14 -2
47 -135 183 -730 l165 -728 136 0 135 0 164 720 c142 623 167 720 182 720 17
0 18 -44 18 -925 l0 -925 225 0 225 0 0 1450 0 1450 -303 0 -302 0 -158 -727
c-87 -401 -161 -736 -163 -745 -17 -60 -37 14 -194 727 l-164 745 -293 0 -293
0 0 -1450z"/>
<path d="M4770 10730 l0 -1450 225 0 225 0 0 1450 0 1450 -225 0 -225 0 0
-1450z"/>
<path d="M5680 10730 l0 -1450 210 0 210 0 1 958 0 957 287 -957 287 -958 223
0 222 0 0 1450 0 1450 -215 0 -215 0 -1 -847 0 -848 -239 795 c-132 437 -247
819 -255 848 l-16 52 -249 0 -250 0 0 -1450z"/>
<path d="M39200 10730 l0 -1450 210 0 210 0 0 930 c0 1190 -15 1157 166 365
31 -137 89 -389 128 -560 l71 -310 135 0 135 0 23 95 c12 52 86 376 165 720
118 519 145 625 160 628 16 3 17 -46 17 -932 l0 -936 220 0 220 0 0 1450 0
1450 -297 -2 -298 -3 -155 -715 c-86 -393 -159 -727 -163 -742 -9 -34 -33 -37
-40 -5 -7 26 -199 893 -263 1187 -25 113 -49 222 -55 243 l-10 37 -289 0 -290
0 0 -1450z"/>
<path d="M41711 11238 c-89 -519 -202 -1170 -250 -1448 l-87 -505 219 -3 c121
-1 221 -1 223 0 3 3 94 629 94 646 0 9 62 12 239 12 l239 0 5 -22 c3 -13 24
-153 47 -313 22 -159 43 -298 46 -307 5 -16 25 -18 229 -18 l225 0 -5 28 c-3
15 -109 628 -235 1362 -127 734 -238 1374 -246 1423 l-16 87 -282 0 -282 0
-163 -942z m463 185 c8 -39 156 -1052 156 -1069 0 -11 -33 -14 -180 -14 l-179
0 4 28 c8 40 155 1062 155 1073 0 5 9 9 19 9 13 0 21 -9 25 -27z"/>
<path d="M43094 12154 c4 -15 120 -328 257 -697 138 -368 249 -677 246 -686
-2 -9 -122 -335 -267 -726 -144 -390 -266 -722 -271 -738 l-8 -27 231 2 231 3
162 484 c89 267 167 487 173 489 7 2 19 -12 27 -31 11 -28 248 -693 322 -904
l15 -43 234 0 c129 0 234 3 234 6 0 3 -124 338 -275 743 l-276 738 260 704
259 704 -226 3 c-124 1 -229 -1 -234 -6 -4 -4 -72 -201 -151 -437 -100 -297
-149 -431 -159 -433 -17 -3 -8 -26 -206 538 l-117 335 -234 3 -233 2 6 -26z"/>
<path d="M21680 1470 l0 -1430 185 0 185 0 0 1430 0 1430 -185 0 -185 0 0
-1430z"/>
<path d="M20145 2030 c-378 -58 -670 -324 -765 -696 -47 -184 -52 -445 -11
-611 98 -396 370 -654 752 -714 92 -14 310 -6 397 15 369 91 622 357 703 736
30 139 32 393 5 518 -83 387 -319 646 -666 732 -97 24 -317 35 -415 20z m291
-284 c285 -76 476 -437 435 -820 -23 -212 -89 -364 -210 -486 -314 -317 -776
-163 -917 305 -38 127 -45 337 -16 475 71 343 275 539 562 540 52 0 118 -6
146 -14z"/>
<path d="M25615 2024 c-159 -34 -321 -145 -414 -285 l-39 -58 -7 159 -8 160
-160 0 -160 0 6 -107 c4 -58 7 -499 7 -980 l0 -873 180 0 180 0 0 623 c0 525
2 632 15 682 40 156 142 288 273 353 72 35 81 37 172 37 88 0 101 -3 162 -33
105 -52 172 -141 215 -287 16 -54 18 -127 21 -717 l3 -658 179 0 180 0 0 648
c0 564 2 655 16 703 56 191 219 334 395 347 123 9 235 -36 315 -126 41 -46 85
-150 105 -245 17 -84 19 -143 19 -709 l0 -618 180 0 180 0 0 610 c0 771 -8
850 -106 1049 -129 263 -392 385 -700 326 -183 -35 -372 -170 -466 -334 l-21
-37 -35 70 c-48 97 -162 211 -255 255 -125 60 -284 76 -432 45z"/>
<path d="M28795 2025 c-272 -54 -473 -204 -606 -449 -109 -202 -159 -485 -130
-735 53 -450 318 -744 741 -822 114 -21 397 -16 540 9 132 24 309 79 317 98 7
18 -52 259 -63 257 -5 -1 -47 -15 -94 -31 -124 -43 -251 -62 -415 -62 -235 0
-373 49 -500 175 -107 106 -165 239 -181 413 l-7 72 681 0 c505 0 683 3 688
12 14 22 7 291 -10 379 -43 227 -146 419 -289 537 -64 53 -191 116 -277 137
-91 23 -307 28 -395 10z m223 -255 c34 -6 88 -20 118 -31 72 -27 170 -118 213
-198 39 -74 71 -196 71 -273 l0 -58 -509 0 -508 0 8 48 c50 267 229 476 439
511 76 12 96 12 168 1z"/>
<path d="M17350 1988 c1 -7 166 -447 368 -978 l367 -965 175 0 175 0 382 975
c211 536 383 976 383 978 0 1 -86 1 -192 0 l-191 -3 -179 -515 c-98 -283 -221
-640 -272 -792 l-94 -277 -26 97 c-30 109 -62 203 -326 960 l-185 532 -192 0
c-148 0 -193 -3 -193 -12z"/>
<path d="M22620 1373 c0 -664 4 -747 46 -891 67 -232 197 -378 399 -449 74
-25 91 -27 235 -28 148 0 159 2 243 31 148 53 267 139 353 256 l42 58 6 -68
c3 -37 8 -106 12 -154 l6 -88 160 0 161 0 -6 112 c-4 62 -7 503 -7 981 l0 867
-185 0 -184 0 -3 -662 -3 -663 -37 -79 c-118 -245 -406 -361 -636 -254 -94 44
-174 154 -207 285 -29 116 -35 246 -35 806 l0 567 -180 0 -180 0 0 -627z"/>
</g>
</svg>
